<?xml version="1.0" encoding="UTF-8"?>
<svg id="Layer_1" xmlns="http://www.w3.org/2000/svg" viewBox="0 0 158.25 104.1">
  <path d="M154.39,83.97c-.21-1.7-.91-3.79-.84-5.48.32-7.8-1.96-15.84-3.79-23.37-.3-1.24-.93-2.38-1.06-3.65-.19-1.88.15-3.94.24-5.83.18-3.84.28-6.79-1.13-10.45-1.2-3.11-2.81-6.22-2.75-9.64,0-.38.04-.76.08-1.14,2.35,5.79,4.9,11.49,7.68,17.09.63,1.27,1.29,2.59,1.34,4.01.05,1.61-.68,3.14-.92,4.73-.52,3.49,1.69,7.19,5,8.39-1.64-1.98-2.1-4.67-2.28-7.24-.17-2.57-.11-5.19-.92-7.63-1.23-3.74-4.39-6.71-5.15-10.58-.42-2.13-.06-4.35-.38-6.5-.4-2.72-1.96-5.23-4.17-6.86-.36-2.36-1.86-3.09-4.46-3.67-3.59-.81-6.83-2.63-10.27-3.86-3.11-1.11-6.56-1.54-9.85-1.31-10.36.72-20.81.23-31.05-1.46-3.11-.52-6.26-1.14-9.4-.87-2.38.21-4.73.93-7.11.74-3.13-.25-6.03-2.06-9.17-1.98-1.19.03-2.36.34-3.51.65-4.01,1.07-7.8,2.55-11.92,2.1-3.07-.34-6.22-.03-9.31-.26-3.72-.27-7.36-1.1-11.06-1.62-.38-.05-.77-.11-1.11-.27-.95-.45-1.37-1.54-1.95-2.41-1.26-1.87-3.71-2.87-5.92-2.42-.02.71-.03,1.41-.05,2.12-.16-1.96-3.2-3.28-2.84-5.32-.84,1.23-.71,2.86-.54,4.35.07.62.14,1.26-.04,1.86-.59,1.96-3.08,2.29-4.09,4.04-1.65,2.87-2.65,6.05-4.13,9.01-1.68,3.36-3.79,5.37-6.58,7.83-.45.4-.94.86-.99,1.46-.04.46.19.9.41,1.3.78,1.43,1.63,2.93,3.04,3.73,2.19,1.25,4.86.45,7.11-.18,2.1-.59,4.39-.88,6.39-1.74.37-.16.73-.33,1.13-.37.39-.04.77.07,1.15.17,3.89,1.04,8.41,1.65,12.1,3.27,2.2.97,5.82,3.74,6.18,6.24,0,0,.22,0,.22,0,0,.66.87.38.85.85,2.04,2.72,4.41,4.76,7.5,6.62.35,2.31,1.64,4.33,3.25,5.97,1.46,1.5,3.51,2.56,4.41,4.5,1.11,2.42.71,5.6,4.34,4.73-.1-2.3-.29-4.61-.44-6.91,1.15,3.6,1.78,7.67,1.79,11.45.01,2.8-1.86,6.03-1.42,8.66.08.48.29.93.48,1.38,1.37,3.31,1.65,6.98,1.28,10.49-.18,1.63-.21,3.18-.3,4.78-.12,1.94-1.34,3.72-2.34,5.32-.45.72-2.19,2.64-1.52,3.42.2.24,3.11.5,3.11.55.94-.1,2.15-.31,3.03-.65.56-.22,1.07-.63,1.26-1.2.1-.29.1-.61.17-.91.52-2.29,3.67-2.57,3.7-5.32.01-1.2-.46-2.35-.84-3.49-1.39-4.19-1.52-8.72-.99-13.11.53-4.39,1.71-8.66,2.88-12.92.49-1.79,1.01-3.63,2.08-5.15,1.3-1.85,3.39-3.19,4.11-5.33.22-.66,7.31,2.59,7.92,3.06,2.26,1.74,4.91,2.72,7.68,3.48,3.55.98,7.24,1.38,10.92,1.25,3.05-.11,6.2-1.74,9.24-1.39,2.34.27,5.88,2.59,4.03,5.29.37.47,1.22.43,1.54-.09.19-.31.19-.7.37-1.02.41-.73,1.47-.69,2.29-.54,2.31.4,4.63.81,6.94,1.21.25.04.51.09.69.27.4.39.15,1.08.33,1.61.28.83,1.79.69,1.91-.18.07-.52-.27-1.06-.08-1.55.11-.29.39-.49.65-.66,1.19-.8,2.38-1.59,3.57-2.39,2.84,3.54,5.67,7.09,8.51,10.63,2.15,2.69,1.8,5.3,2.36,8.56.44,2.55.63,5.18.23,7.73-.38,2.46-1.82,4.9-1.84,7.38,0,.07,0,.15.04.2.06.08.18.09.28.09,1.62,0,3.24-.06,4.86-.16.15,0,.31-.02.44-.09.46-.24.34-.91.33-1.44-.02-1.11.74-2.05,1.34-2.98,1.38-2.13-.04-2.93-.37-4.98-.2-1.28-.5-2.55-.71-3.83-.16-.98.24-2.95-.08-3.74,1.35,3.35,2.23,6.93,2.34,10.55.04,1.42.44,2.87.37,4.25-.1,1.82-1.09,3.59-1.89,5.18-.54,1.06-1.08,2.21-.89,3.38.01.08.03.16.09.22.09.1.25.1.39.09,1.96-.17,3.92-.34,5.87-.52.2-.02.43-.05.57-.2.17-.19.13-.47.12-.72-.05-.97.37-1.9.84-2.75.34-.62.58-1.24.75-1.86.74-2.74-.08-5.43-.79-8.34-.46-1.88-.67-3.82-.91-5.74Z"/>
</svg>